# xmcd
#
# Track frame offsets: 
#        150
#        11052
#        30207
#        39532
#        56830
#        69407
#        80452
#        95147
#        107875
#        122912
#        134800
#        146147
#
# Disc length: 2212 seconds
#
# Revision: 2
# Processed by: cddbd v1.5.2PL0 Copyright (c) Steve Scherf et al.
# Submitted via: ExactAudioCopy v0.99pb4
#
DISCID=b008a20c
DTITLE=Roosevelt Sykes - The Return of Roosevelt Sykes
DYEAR=1960
DGENRE=Blues
TTITLE0=Drivin' Wheel
TTITLE1=Long, Lonesome Night
TTITLE2=Set the Meat Outdoors
TTITLE3=Coming Home
TTITLE4=Stompin' the Boogie
TTITLE5=Number Nine
TTITLE6=Calcutta
TTITLE7=Selfish Woman
TTITLE8=Hangover
TTITLE9=Night Time is the Right Time
TTITLE10=Runnin' the Boogie
TTITLE11=Hey Big Momma
EXTD=
EXTT0=
EXTT1=
EXTT2=
EXTT3=
EXTT4=
EXTT5=
EXTT6=
EXTT7=
EXTT8=
EXTT9=
EXTT10=
EXTT11=
PLAYORDER=
